<svg xmlns="http://www.w3.org/2000/svg" viewBox="-80 -80 650 650"><path d="m478 229h-53.6c-9.8-80-74-144-155-153v-55.7c0-11.2-9-20.3-20-20.3-11.2 0-20.3 9.1-20.3 20.3v55c-81.4 8.9-146 72.8-156 153h-52.7c-11.2 1-20.3 10-20.3 21s9.1 20.3 20.3 20.3h51.9c9 81.5 74.3 146 156 155v52.8c0 11.2 9.1 20.3 20.3 20.3s20.3-9.1 20.3-20.3v-53c81.4-9.6 146-74.2 155-155h53.3c11.2 0 20.3-9.1 20.3-20.3s-7-20-18-20zm-209 154v-67c0-11.2-9.1-20.3-20.3-20.3s-20.3 9.1-20.3 20.3v67.2c-59.6-8.5-107-55.3-115-114h68.2c11.2 0 20.3-9.1 20.3-20.3s-9.1-20.3-20.3-20.3h-67.9c9.4-58 56.1-104 115-112v65.1c0 11.2 9.1 20.3 20.3 20.3s20.3-9.1 20.3-20.3v-64.9c58.2 9 104 54.4 114 112h-66.5c-11.2 0-20.3 9.1-20.3 20.3s9.1 20.3 20.3 20.3h66.8c-8 59-55 105-114 114z" fill="#010002"/></svg>